<svg width="28" height="34" viewBox="0 0 28 34" fill="none" xmlns="http://www.w3.org/2000/svg">
<g clip-path="url(#clip0)">
<path d="M15.44 3L19.52 3.99391L22.16 5.78296L23.84 7.77079L24.08 9.75862H15.44V3Z" fill="#16DE1E"/>
<g filter="url(#filter0_d)">
<path d="M15.1613 3C15.1613 3 9.7251 3 6.83089 3C5.28731 3 4.32258 3.30618 4.32257 5.14325C4.32257 7.62297 4.32257 10.4884 4.32257 13.3428C4.32257 15.2464 4.32257 16.5787 4.32257 18.3548M15.1613 3C19.76 3 23.6774 5.89655 23.6774 10.7241M15.1613 3C15.1613 3 15.1613 7.34483 15.1613 8.7931C15.1613 10.2414 15.92 10.7241 16.4 10.7241C18.9083 10.7241 21.1908 10.7241 23.6774 10.7241M23.6774 10.7241C23.6774 10.7241 23.6606 10.8973 23.6774 13.3428C23.6864 14.6524 23.6796 16.2004 23.6774 18.3548M4.32257 21.9677V24.6774M4.32257 25.5806V28.2903M4.32257 29.1935C4.32257 29.1935 4.32257 29.6452 4.32257 30.0968C4.32257 30.5484 4.70967 31 5.09676 31C5.48386 31 5.87096 31 5.87096 31M6.64515 31H8.96773M9.74193 31H12.0645M12.8387 31H15.1613M15.9355 31H18.2581M22.129 31C22.129 31 22.5161 31 22.9032 31C23.3308 31 23.6774 30.5956 23.6774 30.0968C23.6774 29.6452 23.6774 29.1935 23.6774 29.1935M19.0322 31H21.3548M23.6774 28.2903V25.5806M23.6774 24.6774V21.9677" stroke="white" stroke-width="2"/>
</g>
<path d="M2 17.4828C2 18.5197 2 20.1379 2 20.1379M2 22.7931C2 21.7562 2 20.1379 2 20.1379M2 20.1379H26M26 17.4828C26 19.5566 26 20.7193 26 22.7931" stroke="#16DE1E" stroke-width="2"/>
</g>
<defs>
<filter id="filter0_d" x="0.322571" y="0" width="27.3594" height="36" filterUnits="userSpaceOnUse" color-interpolation-filters="sRGB">
<feFlood flood-opacity="0" result="BackgroundImageFix"/>
<feColorMatrix in="SourceAlpha" type="matrix" values="0 0 0 0 0 0 0 0 0 0 0 0 0 0 0 0 0 0 127 0"/>
<feOffset dy="1"/>
<feGaussianBlur stdDeviation="1.5"/>
<feColorMatrix type="matrix" values="0 0 0 0 0 0 0 0 0 0 0 0 0 0 0 0 0 0 0.23 0"/>
<feBlend mode="normal" in2="BackgroundImageFix" result="effect1_dropShadow"/>
<feBlend mode="normal" in="SourceGraphic" in2="effect1_dropShadow" result="shape"/>
</filter>
<clipPath id="clip0">
<rect width="28" height="34" fill="white"/>
</clipPath>
</defs>
</svg>
