<svg width="62" height="59" viewBox="0 0 62 59" fill="none" xmlns="http://www.w3.org/2000/svg">
<path d="M16.1388 5.25041C16.1388 4.91653 44.6261 4.91653 44.6261 5.25041C44.6261 5.91825 44.2909 27.2879 44.6261 27.2879H56.021C57.0264 27.2879 31.5554 54 30.55 54C29.5445 54 4.07356 27.2879 5.07898 27.2879H16.1388C16.4739 27.2879 16.1388 6.25213 16.1388 5.25041Z" fill="#16DE1E"/>
<path d="M44.6261 27.2879C44.2909 27.2879 44.6261 5.91825 44.6261 5.25041C44.6261 4.91653 16.1388 4.91653 16.1388 5.25041C16.1388 6.25213 16.4739 27.2879 16.1388 27.2879M44.6261 27.2879C44.9612 27.2879 55.3507 27.2879 56.021 27.2879M44.6261 27.2879H56.021M56.021 27.2879C57.0264 27.2879 31.5554 54 30.55 54C29.5445 54 4.07356 27.2879 5.07898 27.2879M5.07898 27.2879C5.74928 27.2879 15.8036 27.2879 16.1388 27.2879M5.07898 27.2879H16.1388" stroke="#16DE1E" stroke-width="10"/>
</svg>
