<svg width="107" height="127" viewBox="0 0 107 127" fill="none" xmlns="http://www.w3.org/2000/svg">
<path d="M62.0056 5.5L77.0056 8.5L89.0056 16.5L96.5056 28.5V37.5H62.0056V5.5Z" fill="#16DE1E"/>
<g filter="url(#filter0_d)">
<path d="M60.387 4C60.387 4 34.2185 4 20.1997 4C12.7229 4 8.05002 5.88136 8.05 17.1695C8.04997 42.5678 8.05001 74.5508 8.05 101.831C8.05 108.604 10.8538 115 19.2651 115C38.8914 115 97.1418 115 97.7705 115C98.3993 115 97.7705 39.7458 97.7705 39.7458M60.387 4H66.9291C82.05 4 97.7705 25 97.7705 35.983C97.7705 35.983 97.7705 38.2763 97.7705 39.7458M60.387 4C60.387 4 60.387 20.6263 60.387 31.2797C60.387 37.5 63.05 39.7458 66.9291 39.7458C79.0788 39.7458 85.7262 39.7458 97.7705 39.7458" stroke="white" stroke-width="8"/>
</g>
<defs>
<filter id="filter0_d" x="0.0499878" y="0" width="106" height="127" filterUnits="userSpaceOnUse" color-interpolation-filters="sRGB">
<feFlood flood-opacity="0" result="BackgroundImageFix"/>
<feColorMatrix in="SourceAlpha" type="matrix" values="0 0 0 0 0 0 0 0 0 0 0 0 0 0 0 0 0 0 127 0"/>
<feOffset dy="4"/>
<feGaussianBlur stdDeviation="2"/>
<feColorMatrix type="matrix" values="0 0 0 0 0 0 0 0 0 0 0 0 0 0 0 0 0 0 0.25 0"/>
<feBlend mode="normal" in2="BackgroundImageFix" result="effect1_dropShadow"/>
<feBlend mode="normal" in="SourceGraphic" in2="effect1_dropShadow" result="shape"/>
</filter>
</defs>
</svg>
