<svg width="125" height="147" viewBox="0 0 125 147" fill="none" xmlns="http://www.w3.org/2000/svg">
<path d="M62.0056 7.5L77.0056 10.5L89.0056 18.5L96.5056 30.5V39.5H62.0056V7.5Z" fill="#16DE1E"/>
<g filter="url(#filter0_d)">
<path d="M60.387 6C60.387 6 34.2185 6 20.1997 6C12.7229 6 8.05002 7.88136 8.05 19.1695C8.04997 44.5678 8.05001 76.5508 8.05 103.831C8.05 110.604 10.8538 117 19.2651 117C38.8914 117 97.1418 117 97.7705 117C98.3993 117 97.7705 41.7458 97.7705 41.7458M60.387 6H66.9291C82.05 6 97.7705 27 97.7705 37.983C97.7705 37.983 97.7705 40.2763 97.7705 41.7458M60.387 6C60.387 6 60.387 22.6263 60.387 33.2797C60.387 39.5 63.05 41.7458 66.9291 41.7458C79.0788 41.7458 85.7262 41.7458 97.7705 41.7458" stroke="white" stroke-width="8"/>
</g>
<path d="M78.1388 93.2504C78.1388 92.9165 106.626 92.9165 106.626 93.2504C106.626 93.9182 106.291 115.288 106.626 115.288H118.021C119.026 115.288 93.5554 142 92.55 142C91.5445 142 66.0736 115.288 67.079 115.288H78.1388C78.4739 115.288 78.1388 94.2521 78.1388 93.2504Z" fill="#16DE1E"/>
<path d="M106.626 115.288C106.291 115.288 106.626 93.9182 106.626 93.2504C106.626 92.9165 78.1388 92.9165 78.1388 93.2504C78.1388 94.2521 78.4739 115.288 78.1388 115.288M106.626 115.288C106.961 115.288 117.351 115.288 118.021 115.288M106.626 115.288H118.021M118.021 115.288C119.026 115.288 93.5554 142 92.55 142C91.5445 142 66.0736 115.288 67.079 115.288M67.079 115.288C67.7493 115.288 77.8036 115.288 78.1388 115.288M67.079 115.288H78.1388" stroke="#16DE1E" stroke-width="10"/>
<defs>
<filter id="filter0_d" x="0.0499878" y="2" width="106" height="127" filterUnits="userSpaceOnUse" color-interpolation-filters="sRGB">
<feFlood flood-opacity="0" result="BackgroundImageFix"/>
<feColorMatrix in="SourceAlpha" type="matrix" values="0 0 0 0 0 0 0 0 0 0 0 0 0 0 0 0 0 0 127 0"/>
<feOffset dy="4"/>
<feGaussianBlur stdDeviation="2"/>
<feColorMatrix type="matrix" values="0 0 0 0 0 0 0 0 0 0 0 0 0 0 0 0 0 0 0.25 0"/>
<feBlend mode="normal" in2="BackgroundImageFix" result="effect1_dropShadow"/>
<feBlend mode="normal" in="SourceGraphic" in2="effect1_dropShadow" result="shape"/>
</filter>
</defs>
</svg>
