<svg width="30" height="30" viewBox="0 0 30 30" fill="none" xmlns="http://www.w3.org/2000/svg">
<path d="M7.99919 9.51667L1.63586 12.02C0.875858 12.32 0.269191 11.8967 0.285858 11.08L0.422524 4.25C0.439191 3.43333 0.999191 3.14667 1.66586 3.61333L4.07586 5.28C6.25883 2.80516 9.21874 1.14653 12.4692 0.576665C13.4212 0.401416 14.388 0.319915 15.3559 0.333332C18.4949 0.400039 21.5296 1.4723 24.0137 3.39241C26.4979 5.31251 28.3003 7.97911 29.1559 11C29.287 11.4644 29.3981 11.9378 29.4892 12.42C29.5336 12.6667 29.5714 12.9133 29.6025 13.16V13.2667C29.6292 13.48 29.6525 13.6933 29.6659 13.9067V13.9333C29.9198 17.4035 28.9318 20.8509 26.8783 23.6598C24.8247 26.4686 21.8395 28.4559 18.4559 29.2667L18.3725 29.2867C18.1303 29.3422 17.8859 29.3922 17.6392 29.4367C16.7756 29.5916 15.8999 29.6697 15.0225 29.67C12.0409 29.6679 9.13188 28.7498 6.68919 27.04C6.67667 27.0185 6.66319 27.0086 6.64926 26.9983C6.63724 26.9894 6.62488 26.9803 6.61252 26.9633C3.46075 24.7486 1.31145 21.3785 0.632525 17.5867C0.600435 17.4404 0.598197 17.2891 0.625946 17.1419C0.653695 16.9947 0.71086 16.8546 0.794018 16.73C0.877177 16.6055 0.984618 16.4989 1.10991 16.4169C1.2352 16.3348 1.37577 16.2788 1.5232 16.2523C1.67062 16.2259 1.82188 16.2294 1.9679 16.2628C2.11393 16.2961 2.25172 16.3586 2.37303 16.4464C2.49434 16.5343 2.59668 16.6457 2.67392 16.7741C2.75115 16.9024 2.8017 17.045 2.82252 17.1933C3.36819 20.2152 5.01198 22.9287 7.43769 24.8116C9.8634 26.6946 12.8997 27.6141 15.9625 27.3933H15.9992C16.1397 27.3933 16.2802 27.374 16.4219 27.3544C16.4753 27.3471 16.5288 27.3397 16.5825 27.3333H16.6292C16.8381 27.3067 17.0481 27.2744 17.2592 27.2367C19.5484 26.8188 21.6747 25.7674 23.3964 24.2019C25.1181 22.6363 26.3663 20.6193 26.9992 18.38L27.0225 18.2967C27.0592 18.16 27.0925 18.0267 27.1259 17.89C27.1342 17.8533 27.1434 17.8158 27.1525 17.7783C27.1617 17.7408 27.1709 17.7033 27.1792 17.6667C27.1875 17.63 27.1967 17.5842 27.2063 17.5363C27.2159 17.4883 27.2259 17.4383 27.2359 17.3933C27.2559 17.3033 27.2825 17.15 27.3025 17.0267C27.3025 16.9833 27.3025 16.9367 27.3225 16.89C27.7363 14.1555 27.2322 11.361 25.8892 8.94333L25.8425 8.85667C25.7759 8.73667 25.7025 8.61667 25.6292 8.5L25.5059 8.3L25.3492 8.06667C25.3394 8.05228 25.3298 8.03795 25.3201 8.02368C25.2605 7.93548 25.2023 7.84941 25.1392 7.76333L25.0525 7.64667C25.0258 7.61105 24.9993 7.57543 24.9729 7.53987C24.9004 7.44233 24.8283 7.34527 24.7525 7.25C23.2547 5.37824 21.2508 3.976 18.9792 3.21H18.9459C18.7959 3.16 18.6425 3.11333 18.4892 3.07L18.3325 3L17.9992 2.91333L17.7059 2.84333L17.4959 2.8L17.0692 2.72H16.9892C14.9705 2.40581 12.9056 2.59295 10.9763 3.26492C9.04697 3.93689 7.31256 5.07306 5.92586 6.57333L8.15586 8.12667C8.82586 8.59333 8.75253 9.21667 7.99919 9.51667Z" fill="white"/>
<path d="M7.99919 9.51667L1.63586 12.02C0.875858 12.32 0.269191 11.8967 0.285858 11.08L0.422524 4.25C0.439191 3.43333 0.999191 3.14667 1.66586 3.61333L4.07586 5.28C6.25883 2.80516 9.21874 1.14653 12.4692 0.576665C13.4212 0.401416 14.388 0.319915 15.3559 0.333332C18.4949 0.400039 21.5296 1.4723 24.0137 3.39241C26.4979 5.31251 28.3003 7.97911 29.1559 11C29.287 11.4644 29.3981 11.9378 29.4892 12.42C29.5336 12.6667 29.5714 12.9133 29.6025 13.16V13.2667C29.6292 13.48 29.6525 13.6933 29.6659 13.9067V13.9333C29.9198 17.4035 28.9318 20.8509 26.8783 23.6598C24.8247 26.4686 21.8395 28.4559 18.4559 29.2667L18.3725 29.2867C18.1303 29.3422 17.8859 29.3922 17.6392 29.4367C16.7756 29.5916 15.8999 29.6697 15.0225 29.67C12.0409 29.6679 9.13188 28.7498 6.68919 27.04C6.67667 27.0185 6.66319 27.0086 6.64926 26.9983C6.63724 26.9894 6.62488 26.9803 6.61252 26.9633C3.46075 24.7486 1.31145 21.3785 0.632525 17.5867C0.600435 17.4404 0.598197 17.2891 0.625946 17.1419C0.653695 16.9947 0.71086 16.8546 0.794018 16.73C0.877177 16.6055 0.984618 16.4989 1.10991 16.4169C1.2352 16.3348 1.37577 16.2788 1.5232 16.2523C1.67062 16.2259 1.82188 16.2294 1.9679 16.2628C2.11393 16.2961 2.25172 16.3586 2.37303 16.4464C2.49434 16.5343 2.59668 16.6457 2.67392 16.7741C2.75115 16.9024 2.8017 17.045 2.82252 17.1933C3.36819 20.2152 5.01198 22.9287 7.43769 24.8116C9.8634 26.6946 12.8997 27.6141 15.9625 27.3933H15.9992C16.1397 27.3933 16.2802 27.374 16.4219 27.3544C16.4753 27.3471 16.5288 27.3397 16.5825 27.3333H16.6292C16.8381 27.3067 17.0481 27.2744 17.2592 27.2367C19.5484 26.8188 21.6747 25.7674 23.3964 24.2019C25.1181 22.6363 26.3663 20.6193 26.9992 18.38L27.0225 18.2967C27.0592 18.16 27.0925 18.0267 27.1259 17.89C27.1342 17.8533 27.1434 17.8158 27.1525 17.7783C27.1617 17.7408 27.1709 17.7033 27.1792 17.6667C27.1875 17.63 27.1967 17.5842 27.2063 17.5363C27.2159 17.4883 27.2259 17.4383 27.2359 17.3933C27.2559 17.3033 27.2825 17.15 27.3025 17.0267C27.3025 16.9833 27.3025 16.9367 27.3225 16.89C27.7363 14.1555 27.2322 11.361 25.8892 8.94333L25.8425 8.85667C25.7759 8.73667 25.7025 8.61667 25.6292 8.5L25.5059 8.3L25.3492 8.06667C25.3394 8.05228 25.3298 8.03795 25.3201 8.02368C25.2605 7.93548 25.2023 7.84941 25.1392 7.76333L25.0525 7.64667C25.0258 7.61105 24.9993 7.57543 24.9729 7.53987C24.9004 7.44233 24.8283 7.34527 24.7525 7.25C23.2547 5.37824 21.2508 3.976 18.9792 3.21H18.9459C18.7959 3.16 18.6425 3.11333 18.4892 3.07L18.3325 3L17.9992 2.91333L17.7059 2.84333L17.4959 2.8L17.0692 2.72H16.9892C14.9705 2.40581 12.9056 2.59295 10.9763 3.26492C9.04697 3.93689 7.31256 5.07306 5.92586 6.57333L8.15586 8.12667C8.82586 8.59333 8.75253 9.21667 7.99919 9.51667Z" stroke="white"/>
<path d="M13.5484 7.25807C13.5484 10.6594 13.5484 12.5664 13.5484 15.9677C13.7903 16.4516 18.3871 20.8065 18.871 21.2903C19.1382 21.5576 19.5007 21.4593 19.8387 21.2903C20.0777 21.1708 20.2031 21.0455 20.3226 20.8065C20.4916 20.4684 20.5898 20.1059 20.3226 19.8387C19.5968 19.1129 15.7258 15.2419 15.4839 15C15.4839 11.9766 15.4839 10.2815 15.4839 7.25807C15.5363 6.83879 15.3669 6.49996 15 6.29032C14.6719 6.10282 14.3604 6.10282 14.0323 6.29032C13.6654 6.49996 13.496 6.83879 13.5484 7.25807Z" fill="#16DE1E"/>
<path d="M13.5484 7.25807C13.6089 7.25807 13.5484 10.6452 13.5484 15.9677M13.5484 7.25807C13.496 6.83879 13.6654 6.49996 14.0323 6.29032C14.3604 6.10282 14.6719 6.10282 15 6.29032C15.3669 6.49996 15.5363 6.83879 15.4839 7.25807M13.5484 7.25807C13.5484 10.6594 13.5484 12.5664 13.5484 15.9677M13.5484 15.9677C13.7903 16.4516 18.3871 20.8065 18.871 21.2903C19.1382 21.5576 19.5007 21.4593 19.8387 21.2903C20.0777 21.1708 20.2031 21.0455 20.3226 20.8065C20.4916 20.4684 20.5898 20.1059 20.3226 19.8387C19.5968 19.1129 15.7258 15.2419 15.4839 15M15.4839 15C15.4839 14.7581 15.4839 7.5 15.4839 7.25807M15.4839 15C15.4839 11.9766 15.4839 10.2815 15.4839 7.25807" stroke="#16DE1E"/>
</svg>
