<svg width="31" height="30" viewBox="0 0 31 30" fill="none" xmlns="http://www.w3.org/2000/svg">
<g clip-path="url(#clip0)">
<path d="M4.44182 17.4615L6.77516 17L8.17516 18.3846L10.9752 17.9231L11.6708 20.7512V21.6154L15.3689 25.4648L16.1085 29L7.7261 26.4075L3.97516 23.4615L2.10849 18.8462L4.44182 17.4615Z" fill="#16DE1E"/>
<path d="M12.9974 2H15.8307H17.7196L16.7752 5.71429L19.1085 9L19.1363 11.0945H20.3585L21.9696 12.3235H23.8585L26.2196 13.1429L28.1085 12.5693V16.5021L26.2196 15.9286L24.8029 16.5021V19.6429L23.8585 21.5L25.7474 23.3571L19.6085 28L19.1363 24.75L21.1085 19.9433L15.8585 17.4853L13.4696 15.9286L12.0529 13.6071L11.6085 12.3235L12.0529 9.42857L11.1085 6.67017L12.9974 2Z" fill="#16DE1E"/>
<g filter="url(#filter0_d)">
<path d="M2.10849 18.7143C2.94049 18.3016 4.56458 17.0986 6.26849 16.8571C7.72449 16.6508 7.2381 18.0948 8.14049 18.3016C9.21698 18.5483 9.79635 17.8228 10.8445 17.4762C11.4685 17.2698 11.0525 18.9206 11.8845 20.1587C12.2125 20.6469 11.0503 21.1883 11.4685 21.6032C13.3405 23.4603 14.7847 23.4524 15.4205 25.5238C15.7054 26.4521 15.7546 27.0377 15.6285 28M19.7513 27.5357C19.5433 26.504 19.1287 24.8861 19.5805 24.0794C20.6205 22.2222 21.0729 21.7697 20.9269 20.1587C20.8499 19.309 20.2045 18.7143 17.5005 17.8889C16.0445 16.6508 13.7565 16.4444 13.7565 16.0317C13.7565 14.3376 11.8278 13.8348 11.6765 12.1111C11.5838 11.0552 12.1662 10.486 12.0925 9.42857C12.0162 8.33512 11.1885 7.83977 11.2605 6.74603C11.3531 5.33938 13.0433 3.85714 13.2513 2M17.7085 2C17.7085 3.85714 16.8765 4.88889 17.2925 6.53968C17.6204 7.84083 18.8981 8.11368 19.1645 9.42857C19.3085 10.1396 18.5874 10.8404 19.1645 11.2857C19.6133 11.632 20.0694 11.1469 20.6205 11.2857C21.5182 11.5118 21.5687 12.6648 22.4925 12.7302C23.1848 12.7791 23.568 11.7462 24.1565 12.1111C25.8205 13.1429 26.4445 13.5556 28.1085 12.5238M28.1085 16.4444C26.6525 16.4444 26.0285 15.9509 25.8205 16.0317C24.7671 16.4413 24.1565 16.8571 24.9885 18.7143C25.3746 19.5762 24.1257 20.0414 24.1565 20.9841C24.1883 21.9573 25.1965 23.254 25.1965 23.254" stroke="#16DE1E"/>
</g>
<circle cx="15.1085" cy="15" r="14" stroke="white" stroke-width="2"/>
</g>
<defs>
<filter id="filter0_d" x="-2.11371" y="-1.05565" width="34.4857" height="34.1206" filterUnits="userSpaceOnUse" color-interpolation-filters="sRGB">
<feFlood flood-opacity="0" result="BackgroundImageFix"/>
<feColorMatrix in="SourceAlpha" type="matrix" values="0 0 0 0 0 0 0 0 0 0 0 0 0 0 0 0 0 0 127 0"/>
<feOffset dy="1"/>
<feGaussianBlur stdDeviation="2"/>
<feColorMatrix type="matrix" values="0 0 0 0 0 0 0 0 0 0 0 0 0 0 0 0 0 0 0.45 0"/>
<feBlend mode="normal" in2="BackgroundImageFix" result="effect1_dropShadow"/>
<feBlend mode="normal" in="SourceGraphic" in2="effect1_dropShadow" result="shape"/>
</filter>
<clipPath id="clip0">
<rect width="30" height="30" fill="white" transform="translate(0.10849)"/>
</clipPath>
</defs>
</svg>
