<svg width="45" height="51" viewBox="0 0 45 51" fill="none" xmlns="http://www.w3.org/2000/svg">
<path d="M26 9L30.25 10.3235L33 12.7059L34.75 15.3529L35 18H26V9Z" fill="#16DE1E"/>
<path d="M11 9H21.9787L25.0426 11.8898V17.9322H35V40H11V9Z" fill="white"/>
<path d="M11.5763 22.661C11.5763 22.661 15.7391 22.661 18.4065 22.661C18.4256 22.661 17.3946 18.9831 13.853 18.9831C13.853 18.9831 11.5763 18.9831 11.5763 19.5348V22.661Z" fill="#16DE1E"/>
<path d="M11.5763 22.661C13.853 22.661 18.0453 22.661 18.4065 22.661M11.5763 22.661C11.5763 22.661 11.5763 19.9026 11.5763 19.5348M11.5763 22.661C11.5763 22.661 15.7391 22.661 18.4065 22.661M11.5763 22.661V19.5348M18.4065 22.661C18.4256 22.661 17.3946 18.9831 13.853 18.9831C13.853 18.9831 11.5763 18.9831 11.5763 19.5348" stroke="#16DE1E"/>
<path d="M11.5763 24.7627C11.5763 24.7627 15.8502 24.7627 18.9322 24.7627L19.4684 25.8135V29.4915C19.4684 31.3305 18.2352 35.7966 14.0426 35.7966C11.5763 35.7966 11.5763 35.2712 11.5763 35.2712V24.7627Z" fill="#16DE1E"/>
<path d="M18.9322 24.7627C15.8502 24.7627 11.5763 24.7627 11.5763 24.7627V35.2712C11.5763 35.2712 11.5763 35.7966 14.0426 35.7966C18.2352 35.7966 19.4684 31.3305 19.4684 29.4915M18.9322 24.7627C19.4684 24.7627 19.4684 25.8135 19.4684 25.8135M18.9322 24.7627L19.4684 25.8135M19.4684 25.8135C19.4684 27.2499 19.4684 28.0552 19.4684 29.4915M19.4684 25.8135V29.4915" stroke="#16DE1E"/>
<path d="M20.228 15.3351C20.753 15.092 21.4647 16.3942 20.6962 16.7448C18.1209 17.9194 16.9503 20.0339 16.9503 20.0339L15.7797 19.0941C15.7797 19.0941 17.1844 16.7448 20.228 15.3351Z" fill="#16DE1E"/>
<path d="M19.76 25.0319C19.76 25.0319 21.0776 25.2248 21.4251 24.2412C21.5973 23.7535 21.8042 23.1679 21.969 22.7013C22.1318 22.2405 22.63 21.9915 23.0962 22.1381C23.5589 22.2836 23.8227 22.7663 23.6616 23.2238C23.3951 23.9808 22.9256 25.1256 22.254 26.079C21.9847 26.4612 21.4212 26.6057 21.1439 26.6061C20.8666 26.6066 19.7575 26.6083 19.7575 26.6083L19.76 25.0319Z" fill="#16DE1E"/>
<path d="M19.983 28.7034C22.2387 28.4214 24.1386 32.0242 24.4147 35.4747C24.452 35.9418 24.0693 36.322 23.6007 36.322C23.182 36.322 22.8262 36.0154 22.7616 35.6017C22.2995 32.6449 21.9319 31.0105 19.983 30.2797C19.983 30.2797 19.3722 28.7797 19.983 28.7034Z" fill="#16DE1E"/>
<g filter="url(#filter0_d)">
<path d="M24.7119 9C24.7119 9 17.3559 9 13.4153 9C11.3136 9 10 9.52542 10 12.678C9.99999 19.7712 10 28.7034 10 36.322C10 38.2138 10.7881 40 13.1525 40C18.6695 40 35.0436 40 35.2203 40C35.3971 40 35.2203 18.983 35.2203 18.983M24.7119 9C24.7119 9 22.6017 9 26.5508 9C30.5 9 35.2203 13.3774 35.2203 17.9322C35.2203 17.9322 35.2203 18.5727 35.2203 18.983M24.7119 9C24.7119 9 24.7119 13.6434 24.7119 16.6186C24.7119 18.3509 26 18.9803 26.5508 18.983C30 19 31.8347 18.983 35.2203 18.983" stroke="white" stroke-width="3"/>
</g>
<defs>
<filter id="filter0_d" x="0.5" y="0.5" width="44.2989" height="50" filterUnits="userSpaceOnUse" color-interpolation-filters="sRGB">
<feFlood flood-opacity="0" result="BackgroundImageFix"/>
<feColorMatrix in="SourceAlpha" type="matrix" values="0 0 0 0 0 0 0 0 0 0 0 0 0 0 0 0 0 0 127 0"/>
<feOffset dy="1"/>
<feGaussianBlur stdDeviation="4"/>
<feColorMatrix type="matrix" values="0 0 0 0 0 0 0 0 0 0 0 0 0 0 0 0 0 0 0.25 0"/>
<feBlend mode="normal" in2="BackgroundImageFix" result="effect1_dropShadow"/>
<feBlend mode="normal" in="SourceGraphic" in2="effect1_dropShadow" result="shape"/>
</filter>
</defs>
</svg>
